<?xml version="1.0" encoding="UTF-8" standalone="no"?>
<!DOCTYPE svg PUBLIC "-//W3C//DTD SVG 1.1//EN" "http://www.w3.org/Graphics/SVG/1.1/DTD/svg11.dtd">
<svg width="100%" height="100%" viewBox="0 0 1024 600" version="1.1" xmlns="http://www.w3.org/2000/svg" xmlns:xlink="http://www.w3.org/1999/xlink" xml:space="preserve" xmlns:serif="http://www.serif.com/" style="fill-rule:evenodd;clip-rule:evenodd;stroke-linecap:round;stroke-linejoin:round;stroke-miterlimit:1.5;">
    <g>
        <g transform="matrix(-0.872542,0.685864,-0.509379,-0.648022,1800.37,219.781)">
            <path d="M998.406,494.195L1045.65,566.743L929.709,566.743L998.406,494.195Z" style="fill:rgb(185,11,15);"/>
        </g>
        <g transform="matrix(1.04291,0.0917193,-0.0932482,1.06029,-282.879,-111.648)">
            <path d="M973.72,504.596L872.714,409.211L829.147,455.345L930.153,550.73L973.72,504.596Z" style="fill:rgb(185,11,15);"/>
        </g>
        <g transform="matrix(1.00198,0,0,1.10967,-100.889,-96.4068)">
            <path d="M958.997,249.431C958.997,199.766 914.342,159.445 859.34,159.445L333.268,159.445C278.265,159.445 233.611,199.766 233.611,249.431L233.611,429.401C233.611,479.065 278.265,519.386 333.268,519.386L859.34,519.386C914.342,519.386 958.997,479.065 958.997,429.401L958.997,249.431Z" style="fill:rgb(187,157,15);"/>
        </g>
        <g transform="matrix(1.04291,0.0917193,-0.0932482,1.06029,-296.045,-92.305)">
            <path d="M973.72,504.596L872.714,409.211L829.147,455.345L930.153,550.73L973.72,504.596Z" style="fill:rgb(241,0,0);"/>
        </g>
        <g transform="matrix(0.995765,0.241211,-0.242788,1.00227,-415.067,-633.173)">
            <path d="M973.72,504.596L928.317,469.66C920.504,462.521 911.583,457.209 903.194,449.788C890.974,438.978 864.587,437.916 851.677,426.768L886.367,461.84L874.197,460.459L812.535,469.523L930.153,550.73L973.72,504.596Z" style="fill:rgb(185,11,15);"/>
        </g>
        <g transform="matrix(0.995765,0.241211,-0.242788,1.00227,-435.051,-621.631)">
            <path d="M973.72,504.596L928.932,465.084C921.12,457.945 912.968,450.64 904.579,443.219C892.359,432.409 879.635,421.352 866.725,410.205L886.367,461.84L829.147,455.345L930.153,550.73L973.72,504.596Z" style="fill:rgb(241,0,0);"/>
        </g>
        <g transform="matrix(0.877879,0,0,0.880166,107.09,28.6907)">
            <ellipse cx="272.183" cy="70.64" rx="8.737" ry="8.08" style="fill:rgb(255,244,95);"/>
        </g>
        <g transform="matrix(0.877879,0,0,0.880166,91.7493,14.4678)">
            <ellipse cx="272.183" cy="70.64" rx="8.737" ry="8.08" style="fill:rgb(255,244,95);"/>
        </g>
        <g transform="matrix(0.877879,0,0,0.880166,76.4084,-4.81107)">
            <ellipse cx="272.183" cy="70.64" rx="8.737" ry="8.08" style="fill:rgb(255,244,95);"/>
        </g>
        <g transform="matrix(0.877879,0,0,0.880166,137.326,24.2559)">
            <ellipse cx="272.183" cy="70.64" rx="8.737" ry="8.08" style="fill:rgb(255,244,95);"/>
        </g>
        <g transform="matrix(0.877879,0,0,0.880166,121.985,2.30036)">
            <ellipse cx="272.183" cy="70.64" rx="8.737" ry="8.08" style="fill:rgb(255,244,95);"/>
        </g>
        <g transform="matrix(0.877879,0,0,0.880166,109.412,-17.5655)">
            <ellipse cx="272.183" cy="70.64" rx="8.737" ry="8.08" style="fill:rgb(255,244,95);"/>
        </g>
        <g transform="matrix(0.967296,0,0,1.04512,-92.7878,-62.8821)">
            <path d="M958.997,249.431C958.997,199.766 915.432,159.445 861.772,159.445L330.836,159.445C277.176,159.445 233.611,199.766 233.611,249.431L233.611,429.401C233.611,479.065 277.176,519.386 330.836,519.386L861.772,519.386C915.432,519.386 958.997,479.065 958.997,429.401L958.997,249.431Z" style="fill:rgb(255,210,0);"/>
        </g>
        <g transform="matrix(0.877879,0,0,0.880166,-53.8509,78.3553)">
            <ellipse cx="272.183" cy="70.64" rx="8.737" ry="8.08" style="fill:rgb(196,186,52);"/>
        </g>
        <g transform="matrix(0.877879,0,0,0.880166,-39.9192,-6.87793)">
            <path d="M958.997,249.431C958.997,199.766 918.571,159.445 868.777,159.445L323.83,159.445C274.037,159.445 233.611,199.766 233.611,249.431L233.611,429.401C233.611,479.065 274.037,519.386 323.83,519.386L868.777,519.386C918.571,519.386 958.997,479.065 958.997,429.401L958.997,249.431Z" style="fill:rgb(255,244,95);"/>
        </g>
        <g transform="matrix(0.807315,0,0,0.775855,2.60947,28.5121)">
            <path d="M958.997,249.431C958.997,199.766 920.247,159.445 872.518,159.445L320.089,159.445C272.36,159.445 233.611,199.766 233.611,249.431L233.611,429.401C233.611,479.065 272.36,519.386 320.089,519.386L872.518,519.386C920.247,519.386 958.997,479.065 958.997,429.401L958.997,249.431Z" style="fill:rgb(234,223,81);"/>
        </g>
        <g transform="matrix(0.877879,0,0,0.880166,-28.6233,64.174)">
            <ellipse cx="272.183" cy="70.64" rx="8.737" ry="8.08" style="fill:rgb(255,244,95);"/>
        </g>
        <g transform="matrix(0.877879,0,0,0.880166,-69.1918,98.171)">
            <ellipse cx="272.183" cy="70.64" rx="8.737" ry="8.08" style="fill:rgb(255,244,95);"/>
        </g>
        <g transform="matrix(0.877879,0,0,0.880166,-89.1218,150.15)">
            <ellipse cx="272.183" cy="70.64" rx="8.737" ry="8.08" style="fill:rgb(255,244,95);"/>
        </g>
        <g transform="matrix(0.877879,0,0,0.880166,-89.1218,179.765)">
            <ellipse cx="272.183" cy="70.64" rx="8.737" ry="8.08" style="fill:rgb(255,244,95);"/>
        </g>
        <g transform="matrix(0.877879,0,0,0.880166,1.7011,57.0626)">
            <ellipse cx="272.183" cy="70.64" rx="8.737" ry="8.08" style="fill:rgb(255,244,95);"/>
        </g>
        <g transform="matrix(0.877879,0,0,0.880166,32.502,57.0211)">
            <ellipse cx="272.183" cy="70.64" rx="8.737" ry="8.08" style="fill:rgb(255,244,95);"/>
        </g>
        <g transform="matrix(0.877879,0,0,0.880166,63.1889,57.0211)">
            <ellipse cx="272.183" cy="70.64" rx="8.737" ry="8.08" style="fill:rgb(255,244,95);"/>
        </g>
        <g transform="matrix(0.877879,0,0,0.880166,98.9618,57.0211)">
            <ellipse cx="272.183" cy="70.64" rx="8.737" ry="8.08" style="fill:rgb(255,244,95);"/>
        </g>
        <g transform="matrix(0.877879,0,0,0.880166,131.296,57.0211)">
            <ellipse cx="272.183" cy="70.64" rx="8.737" ry="8.08" style="fill:rgb(255,244,95);"/>
        </g>
        <g transform="matrix(0.877879,0,0,0.880166,165.085,57.0211)">
            <ellipse cx="272.183" cy="70.64" rx="8.737" ry="8.08" style="fill:rgb(255,244,95);"/>
        </g>
        <g transform="matrix(0.877879,0,0,0.880166,221.145,57.0211)">
            <ellipse cx="272.183" cy="70.64" rx="8.737" ry="8.08" style="fill:rgb(255,244,95);"/>
        </g>
        <g transform="matrix(0.877879,0,0,0.880166,252.29,57.0211)">
            <ellipse cx="272.183" cy="70.64" rx="8.737" ry="8.08" style="fill:rgb(196,186,52);"/>
        </g>
        <g transform="matrix(0.877879,0,0,0.880166,252.29,57.0211)">
            <ellipse cx="272.183" cy="70.64" rx="8.737" ry="8.08" style="fill:rgb(196,186,52);"/>
        </g>
        <g transform="matrix(0.877879,0,0,0.880166,-81.4514,122.617)">
            <ellipse cx="272.183" cy="70.64" rx="8.737" ry="8.08" style="fill:rgb(196,186,52);"/>
        </g>
        <g transform="matrix(0.877879,0,0,0.880166,287.277,57.0211)">
            <ellipse cx="272.183" cy="70.64" rx="8.737" ry="8.08" style="fill:rgb(255,244,95);"/>
        </g>
        <g transform="matrix(0.877879,0,0,0.880166,323.843,57.0211)">
            <ellipse cx="272.183" cy="70.64" rx="8.737" ry="8.08" style="fill:rgb(255,244,95);"/>
        </g>
        <g transform="matrix(0.877879,0,0,0.880166,355.607,57.0211)">
            <ellipse cx="272.183" cy="70.64" rx="8.737" ry="8.08" style="fill:rgb(255,244,95);"/>
        </g>
        <g transform="matrix(0.877879,0,0,0.880166,389.194,57.0211)">
            <ellipse cx="272.183" cy="70.64" rx="8.737" ry="8.08" style="fill:rgb(255,244,95);"/>
        </g>
        <g transform="matrix(0.877879,0,0,0.880166,420.964,57.0211)">
            <ellipse cx="272.183" cy="70.64" rx="8.737" ry="8.08" style="fill:rgb(255,244,95);"/>
        </g>
        <g transform="matrix(0.877879,0,0,0.880166,450.327,57.0211)">
            <ellipse cx="272.183" cy="70.64" rx="8.737" ry="8.08" style="fill:rgb(255,244,95);"/>
        </g>
        <g transform="matrix(0.877879,0,0,0.880166,479.465,57.0211)">
            <ellipse cx="272.183" cy="70.64" rx="8.737" ry="8.08" style="fill:rgb(255,244,95);"/>
        </g>
        <g transform="matrix(0.877879,0,0,0.880166,510.262,57.0211)">
            <ellipse cx="272.183" cy="70.64" rx="8.737" ry="8.08" style="fill:rgb(255,244,95);"/>
        </g>
        <g transform="matrix(0.877879,0,0,0.880166,540.321,71.2439)">
            <ellipse cx="272.183" cy="70.64" rx="8.737" ry="8.08" style="fill:rgb(255,244,95);"/>
        </g>
        <g transform="matrix(0.877879,0,0,0.880166,555.662,92.5782)">
            <ellipse cx="272.183" cy="70.64" rx="8.737" ry="8.08" style="fill:rgb(255,244,95);"/>
        </g>
        <g transform="matrix(0.877879,0,0,0.880166,194.969,57.0211)">
            <ellipse cx="272.183" cy="70.64" rx="8.737" ry="8.08" style="fill:rgb(255,244,95);"/>
        </g>
        <g transform="matrix(0.877879,6.75535e-05,-6.7378e-05,0.880166,10.6268,27.7783)">
            <path d="M179.27,186.081L895.685,178.323" style="fill:none;stroke:black;stroke-width:1.14px;"/>
        </g>
        <g transform="matrix(0.888873,0,0,0.880166,5.81403,146.889)">
            <path d="M179.27,186.081L895.685,178.323" style="fill:none;stroke:black;stroke-width:1.13px;"/>
        </g>
        <g transform="matrix(0.860129,0,0,0.524081,21.7148,316.793)">
            <path d="M179.27,186.081L895.685,178.323" style="fill:none;stroke:black;stroke-width:1.4px;"/>
        </g>
        <g transform="matrix(-0.872542,0.685864,-0.509379,-0.648022,1785.47,228.892)">
            <path d="M987.678,494.195L1045.65,566.743L929.709,566.743L987.678,494.195Z" style="fill:rgb(241,0,0);"/>
        </g>
        <g transform="matrix(0.877879,0,0,0.880166,570.691,122.577)">
            <ellipse cx="272.183" cy="70.64" rx="8.737" ry="8.08" style="fill:rgb(255,244,95);"/>
        </g>
        <g transform="matrix(0.877879,0,0,0.880166,578.361,151.557)">
            <ellipse cx="272.183" cy="70.64" rx="8.737" ry="8.08" style="fill:rgb(255,244,95);"/>
        </g>
        <g transform="matrix(0.877879,0,0,0.880166,578.361,209.321)">
            <ellipse cx="272.183" cy="70.64" rx="8.737" ry="8.08" style="fill:rgb(255,244,95);"/>
        </g>
        <g transform="matrix(0.877879,0,0,0.880166,578.361,237.825)">
            <ellipse cx="272.183" cy="70.64" rx="8.737" ry="8.08" style="fill:rgb(255,244,95);"/>
        </g>
        <g transform="matrix(0.877879,0,0,0.880166,578.361,271.066)">
            <ellipse cx="272.183" cy="70.64" rx="8.737" ry="8.08" style="fill:rgb(255,244,95);"/>
        </g>
        <g transform="matrix(0.877879,0,0,0.880166,578.361,300.134)">
            <ellipse cx="272.183" cy="70.64" rx="8.737" ry="8.08" style="fill:rgb(255,244,95);"/>
        </g>
        <g transform="matrix(0.877879,0,0,0.880166,578.361,327.975)">
            <ellipse cx="272.183" cy="70.64" rx="8.737" ry="8.08" style="fill:rgb(255,244,95);"/>
        </g>
        <g transform="matrix(0.877879,0,0,0.880166,555.35,381.336)">
            <ellipse cx="272.183" cy="70.64" rx="8.737" ry="8.08" style="fill:rgb(255,244,95);"/>
        </g>
        <g transform="matrix(0.877879,0,0,0.880166,526.3,395.559)">
            <ellipse cx="272.183" cy="70.64" rx="8.737" ry="8.08" style="fill:rgb(255,244,95);"/>
        </g>
        <g transform="matrix(0.877879,0,0,0.880166,493.663,402.67)">
            <ellipse cx="272.183" cy="70.64" rx="8.737" ry="8.08" style="fill:rgb(255,244,95);"/>
        </g>
        <g transform="matrix(0.877879,0,0,0.880166,373.036,429.998)">
            <ellipse cx="272.183" cy="70.64" rx="8.737" ry="8.08" style="fill:rgb(255,244,95);"/>
        </g>
        <g transform="matrix(0.877879,0,0,0.880166,388.377,444.22)">
            <ellipse cx="272.183" cy="70.64" rx="8.737" ry="8.08" style="fill:rgb(255,244,95);"/>
        </g>
        <g transform="matrix(0.877879,0,0,0.880166,403.718,458.443)">
            <ellipse cx="272.183" cy="70.64" rx="8.737" ry="8.08" style="fill:rgb(255,244,95);"/>
        </g>
        <g transform="matrix(0.877879,0,0,0.880166,345.467,444.22)">
            <ellipse cx="272.183" cy="70.64" rx="8.737" ry="8.08" style="fill:rgb(255,244,95);"/>
        </g>
        <g transform="matrix(0.877879,0,0,0.880166,330.126,429.998)">
            <ellipse cx="272.183" cy="70.64" rx="8.737" ry="8.08" style="fill:rgb(255,244,95);"/>
        </g>
        <g transform="matrix(0.877879,0,0,0.880166,360.808,458.443)">
            <ellipse cx="272.183" cy="70.64" rx="8.737" ry="8.08" style="fill:rgb(255,244,95);"/>
        </g>
        <g transform="matrix(0.877879,0,0,0.880166,376.149,473.383)">
            <ellipse cx="272.183" cy="70.64" rx="8.737" ry="8.08" style="fill:rgb(255,244,95);"/>
        </g>
        <g transform="matrix(0.877879,0,0,0.880166,391.49,494.718)">
            <ellipse cx="272.183" cy="70.64" rx="8.737" ry="8.08" style="fill:rgb(255,244,95);"/>
        </g>
        <g transform="matrix(0.877879,0,0,0.880166,418.12,501.829)">
            <ellipse cx="272.183" cy="70.64" rx="8.737" ry="8.08" style="fill:rgb(255,244,95);"/>
        </g>
        <g transform="matrix(0.877879,0,0,0.880166,418.12,473.383)">
            <ellipse cx="272.183" cy="70.64" rx="8.737" ry="8.08" style="fill:rgb(255,244,95);"/>
        </g>
        <g transform="matrix(0.877879,0,0,0.880166,463.905,402.67)">
            <ellipse cx="272.183" cy="70.64" rx="8.737" ry="8.08" style="fill:rgb(255,244,95);"/>
        </g>
        <g transform="matrix(0.877879,0,0,0.880166,337.881,402.67)">
            <ellipse cx="272.183" cy="70.64" rx="8.737" ry="8.08" style="fill:rgb(255,244,95);"/>
        </g>
        <g transform="matrix(0.877879,0,0,0.880166,307.804,402.67)">
            <ellipse cx="272.183" cy="70.64" rx="8.737" ry="8.08" style="fill:rgb(255,244,95);"/>
        </g>
        <g transform="matrix(0.877879,0,0,0.880166,279.606,402.67)">
            <ellipse cx="272.183" cy="70.64" rx="8.737" ry="8.08" style="fill:rgb(255,244,95);"/>
        </g>
        <g transform="matrix(0.877879,0,0,0.880166,252.742,402.67)">
            <ellipse cx="272.183" cy="70.64" rx="8.737" ry="8.08" style="fill:rgb(255,244,95);"/>
        </g>
        <g transform="matrix(0.877879,0,0,0.880166,197.382,402.67)">
            <ellipse cx="272.183" cy="70.64" rx="8.737" ry="8.08" style="fill:rgb(255,244,95);"/>
        </g>
        <g transform="matrix(0.877879,0,0,0.880166,165.57,402.67)">
            <ellipse cx="272.183" cy="70.64" rx="8.737" ry="8.08" style="fill:rgb(255,244,95);"/>
        </g>
        <g transform="matrix(0.877879,0,0,0.880166,136.7,402.67)">
            <ellipse cx="272.183" cy="70.64" rx="8.737" ry="8.08" style="fill:rgb(255,244,95);"/>
        </g>
        <g transform="matrix(0.877879,0,0,0.880166,107.903,402.67)">
            <ellipse cx="272.183" cy="70.64" rx="8.737" ry="8.08" style="fill:rgb(255,244,95);"/>
        </g>
        <g transform="matrix(0.877879,0,0,0.880166,76.5436,402.67)">
            <ellipse cx="272.183" cy="70.64" rx="8.737" ry="8.08" style="fill:rgb(255,244,95);"/>
        </g>
        <g transform="matrix(0.877879,0,0,0.880166,44.9655,402.67)">
            <ellipse cx="272.183" cy="70.64" rx="8.737" ry="8.08" style="fill:rgb(255,244,95);"/>
        </g>
        <g transform="matrix(0.877879,0,0,0.880166,12.8093,402.67)">
            <ellipse cx="272.183" cy="70.64" rx="8.737" ry="8.08" style="fill:rgb(255,244,95);"/>
        </g>
        <g transform="matrix(0.877879,0,0,0.880166,-21.071,402.67)">
            <ellipse cx="272.183" cy="70.64" rx="8.737" ry="8.08" style="fill:rgb(255,244,95);"/>
        </g>
        <g transform="matrix(0.877879,0,0,0.880166,-48.5033,388.447)">
            <ellipse cx="272.183" cy="70.64" rx="8.737" ry="8.08" style="fill:rgb(255,244,95);"/>
        </g>
        <g transform="matrix(0.877879,0,0,0.880166,-73.9379,374.224)">
            <ellipse cx="272.183" cy="70.64" rx="8.737" ry="8.08" style="fill:rgb(255,244,95);"/>
        </g>
        <g transform="matrix(0.877879,0,0,0.880166,-89.2787,347.693)">
            <ellipse cx="272.183" cy="70.64" rx="8.737" ry="8.08" style="fill:rgb(255,244,95);"/>
        </g>
        <g transform="matrix(0.877879,0,0,0.880166,-89.2787,320.771)">
            <ellipse cx="272.183" cy="70.64" rx="8.737" ry="8.08" style="fill:rgb(255,244,95);"/>
        </g>
        <g transform="matrix(0.877879,0,0,0.880166,-92.2031,264.047)">
            <ellipse cx="272.183" cy="70.64" rx="8.737" ry="8.08" style="fill:rgb(255,244,95);"/>
        </g>
        <g transform="matrix(0.877879,0,0,0.880166,-92.2031,236.786)">
            <ellipse cx="272.183" cy="70.64" rx="8.737" ry="8.08" style="fill:rgb(255,244,95);"/>
        </g>
        <g transform="matrix(0.877879,0,0,0.880166,370.843,402.67)">
            <ellipse cx="272.183" cy="70.64" rx="8.737" ry="8.08" style="fill:rgb(255,244,95);"/>
        </g>
        <g transform="matrix(0.877879,0,0,0.880166,398.076,402.67)">
            <ellipse cx="272.183" cy="70.64" rx="8.737" ry="8.08" style="fill:rgb(255,244,95);"/>
        </g>
        <g transform="matrix(0.877879,0,0,0.880166,578.361,183.893)">
            <ellipse cx="272.183" cy="70.64" rx="8.737" ry="8.08" style="fill:rgb(197,187,51);"/>
        </g>
        <g transform="matrix(0.877879,0,0,0.880166,570.691,355.185)">
            <ellipse cx="272.183" cy="70.64" rx="8.737" ry="8.08" style="fill:rgb(197,187,51);"/>
        </g>
        <g transform="matrix(0.877879,0,0,0.880166,429.204,402.67)">
            <ellipse cx="272.183" cy="70.64" rx="8.737" ry="8.08" style="fill:rgb(197,187,51);"/>
        </g>
        <g transform="matrix(0.877879,0,0,0.880166,223.954,402.67)">
            <ellipse cx="272.183" cy="70.64" rx="8.737" ry="8.08" style="fill:rgb(197,187,51);"/>
        </g>
        <g transform="matrix(0.877879,0,0,0.880166,-92.2031,297.42)">
            <ellipse cx="272.183" cy="70.64" rx="8.737" ry="8.08" style="fill:rgb(197,187,51);"/>
        </g>
        <g transform="matrix(0.877879,0,0,0.880166,-89.1218,211.165)">
            <ellipse cx="272.183" cy="70.64" rx="8.737" ry="8.08" style="fill:rgb(197,187,51);"/>
        </g>
    </g>
    <g transform="matrix(1,0,0,1,-25.8514,16.4475)">
        <text x="239.674px" y="249.053px" style="font-family:'PTSans-NarrowBold', 'PT Sans Narrow', sans-serif;font-weight:700;font-stretch:condensed;font-size:52px;">FR<tspan x="286.266px " y="249.053px ">O</tspan>NT<tspan x="365.982px " y="249.053px "> </tspan>END<tspan x="454.278px 463.846px " y="249.053px 249.053px "> W</tspan>EB DEVEL<tspan x="676.214px 704.97px " y="249.053px 249.053px ">OP</tspan>ER</text>
    </g>
    <g transform="matrix(1,0,0,1,-25.8514,124.51)">
        <text x="239.674px" y="249.053px" style="font-family:'PTSans-NarrowBold', 'PT Sans Narrow', sans-serif;font-weight:700;font-stretch:condensed;font-size:52px;">FR<tspan x="286.266px " y="249.053px ">O</tspan>NT<tspan x="365.982px " y="249.053px "> </tspan>END<tspan x="454.278px 463.846px " y="249.053px 249.053px "> W</tspan>EB DEVEL<tspan x="676.214px 704.97px " y="249.053px 249.053px ">OP</tspan>ER</text>
    </g>
</svg>
